# xmcd
# 
# Track frame offsets:
#     150
#     16338
#     35512
#     51273
#     77117
#     89764
#     109470
#     133019
#     146501
#     167595
#     182368
#     203629
# 
# Disc length: 2912
# 
# Revision: 1
# Processed by: cddbd v1.5.2PL0 Copyright (c) Steve Scherf et al.
# Submitted via: fre:ac v1.0.31
# 
DISCID=a20b5e0c
DTITLE=Jim Brickman - Pure Romance
DYEAR=2015
DGENRE=New Age
TTITLE0=Valentine
TTITLE1=A Thousand Years
TTITLE2=Bless The Broken Road
TTITLE3=Together Again
TTITLE4=Fields Of Gold
TTITLE5=Love Of My Life
TTITLE6=All Of Me
TTITLE7=I Do (Cherish You)
TTITLE8=Home
TTITLE9=Make You Feel My Love
TTITLE10=The Gift
TTITLE11=I Will Remember You
EXTD=
EXTT0=
EXTT1=
EXTT2=
EXTT3=
EXTT4=
EXTT5=
EXTT6=
EXTT7=
EXTT8=
EXTT9=
EXTT10=
EXTT11=
PLAYORDER=
